<?xml version="1.0" encoding="UTF-8"?>
<svg id="Layer_2" data-name="Layer 2" xmlns="http://www.w3.org/2000/svg" viewBox="0 0 77.3 77.3">
  <defs>
    <style>
      .cls-1, .cls-2 {
        fill: #fff;
      }

      .cls-1, .cls-2, .cls-3 {
        stroke-width: 0px;
      }

      .cls-1, .cls-3 {
        fill-rule: evenodd;
      }

      .cls-3 {
        fill: #be1f24;
      }
    </style>
  </defs>
  <g id="Layer_1-2" data-name="Layer 1">
    <path class="cls-3" d="M38.65,0c21.34,0,38.65,17.3,38.65,38.65s-17.3,38.65-38.65,38.65S0,59.99,0,38.65,17.3,0,38.65,0"/>
    <path class="cls-1" d="M36.61,28s.01-.63-.07-.83c-.09-.2-.29-.46-.13-.62.16-.16.52-.22.5-.03-.01.19-.03.58.06.76.09.19.45.46.53.35.09-.12.09-.37.04-.43-.05-.06-.05-.25.03-.27.08-.02.2-.01.17.1-.03.11-.04.31.1.46.14.14.38.13.41.05.03-.08.16-.37.11-.55-.05-.17-.12-.21-.07-.32.05-.12.2-.14.24-.05s.08.14.04.24c-.04.1-.01.51.04.6.05.09.25.18.31.15.05-.02.18-.33.25-.49.07-.16.19-.35.12-.45-.07-.1-.12-.2-.07-.28.05-.09.25-.12.25.04s-.15.46-.19.72c-.04.26-.04.41.04.44.08.04.21.01.29-.17.08-.18.24-.46.19-.58-.05-.11.03-.21.11-.19.09.01.13.17.05.31-.08.13-.14.66-.08.73.06.08.17.13.33,0,.16-.14.2-.18.2-.27,0-.09.07-.23.19-.2.12.03.24.15.14.25-.1.1-.21.33-.18.44.03.11.26.21.33.06.07-.15.21-.32.27-.39.06-.07-.04-.25.12-.27.15-.02.34.12.2.24-.14.13-.38.37-.38.53,0,.16.14.35.28.21.15-.14.51-.48.56-.59.05-.11.11-.38.21-.38.1,0,.33.09.2.24-.13.15-.35.33-.49.5-.14.17-.26.53-.2.57.05.04.26-.04.35-.1.08-.06.04-.22.19-.26.15-.04.25.04.23.12-.02.08-.04.14-.15.19-.11.05-.25.21-.24.3,0,.09-.03.25.18.19.21-.06.61-.47.67-.58.06-.12.08-.28.2-.28.12,0,.24.1.2.18-.04.08-.09.19-.21.23-.12.04-.54.44-.58.55-.04.11-.03.25.14.23.17-.02.44-.1.46-.21.02-.11.13-.27.24-.23.11.05.17.05.15.18-.02.13,0,.18-.15.24-.15.06-.25.08-.37.18-.12.1-.23.22-.23.32s.03.24.31.22c.28-.03.56-.13.63-.22.06-.09.28-.18.36-.08.08.1.08.17-.03.22-.11.05-.25.09-.43.14-.18.05-.42.1-.51.19-.1.09-.14.18,0,.18.14,0,.35.03.42,0,.08-.03.23-.09.26.04.03.13.04.18-.12.2-.17.01-.31,0-.44.01-.14,0-.17.24-.01.27.15.03,1.25.09,1.35.03.1-.06.35-.14.38-.07.04.08.13.15-.04.17-.17.02-.22.01-.29.02-.08,0-.7,0-.98.06-.28.06-.55.18-.43.24.13.06.38.12.57.07.19-.04.46-.12.5-.06.04.06.07.16-.04.19-.11.04-.15.05-.33.04-.18-.01-.58-.02-.62.06-.04.08.05.2.2.18.15-.02.57,0,.82.06.25.06.43.07.41.18-.02.11-.25.14-.36.06-.12-.09-.43-.18-.74-.15-.32.02-.49.14-.52.19-.04.05-.02.07.17.05.18-.03.71-.08.78.08.07.17.11.2-.02.23-.13.03-.2.02-.26-.06-.06-.08-.41-.02-.49,0-.08.01-.3.11-.17.22.13.11.44.26.74.27.3.02.31-.04.4-.06.09-.02.27.06.27.14s-.06.4-.24.31c-.18-.09-.17-.18-.38-.24-.22-.06-.64-.13-.8-.1-.15.03-.33.1-.28.18.05.08.19.16.47.3.28.14.32.15.46.15.14,0,.24.03.23.13,0,.1.01.22-.13.2-.14-.01-.27-.09-.33-.15-.07-.06-.23-.17-.44-.24-.21-.07-.65-.04-.54.05.11.08.5.4.72.54.22.14.28.23.38.27.1.03.22.01.23.09.01.07.02.13-.09.18-.11.05-.23-.03-.28-.13-.05-.1-.52-.41-.69-.53-.17-.12-.32-.17-.45-.18-.13,0-.18.08-.12.15.05.08.24.24.44.34.19.1.35.18.35.26,0,.08-.12.1-.19.03-.07-.08-.5-.37-.67-.43-.18-.05-.23.07-.18.18.06.1.36.31.47.37.12.06.29.18.27.28-.02.1-.19.17-.24.1-.06-.07-.37-.44-.54-.56-.18-.12-.38-.15-.4-.06-.02.09.13.24.28.36.15.11.31.24.26.32-.05.08-.25.14-.32-.01-.07-.15-.13-.36-.33-.43-.2-.07-.27,0-.25.08.03.08.17.31.32.5.15.19.31.23.22.33-.09.1-.24.18-.3-.01-.06-.19-.15-.48-.36-.58-.2-.1-.36-.14-.36-.05s-.03.17.07.23c.1.06.15.06.15.17s-.18.17-.29.12c-.11-.05-.13-.15-.15-.26-.02-.1-.05-.16-.11-.21-.06-.05-.1.02-.1.11s0,.71.17.84c.18.13.32.3.24.4-.08.11-.36.22-.41-.01-.05-.23-.12-.43-.19-.61-.08-.18-.19-.45-.29-.5-.1-.05-.18-.09-.15.12.03.2,0,.52.08.65.08.13.19.24.07.33-.12.09-.3.09-.32-.14-.02-.23.13-.47.01-.65-.11-.18-.27-.21-.29-.11-.01.1-.03.85.05.98.08.12.14.23.05.31-.1.08-.37.05-.33-.14.04-.19.1-.54.09-.66-.01-.12-.1-.45-.15-.49-.05-.04-.13.09-.19.2-.06.11-.05.42-.05.55,0,.13-.18.22-.21.07-.03-.14-.01-.29,0-.41.01-.12-.02-.24-.09-.33-.07-.09-.15-.1-.23.04-.08.14-.04.38-.04.5,0,.11-.09.18-.23.16-.14-.02-.13-.24-.06-.36.06-.12.06-.32.06-.38,0-.05-.13-.09-.2.03-.08.12-.17.38-.17.46,0,.08-.03.12-.17.12s-.16-.14-.1-.26c.06-.12.18-.23.18-.36,0-.12-.04-.28-.12-.18-.08.1-.19.22-.28.37-.1.15-.14.34-.15.46s-.04.2-.16.22c-.12.01-.21-.1-.09-.28.12-.18.2-.44.22-.57.02-.13-.05-.4-.14-.29-.09.12-.18.41-.23.56-.05.16-.04.24-.18.26-.14.02-.33-.12-.2-.29.14-.18.26-.42.27-.55,0-.14-.03-.22-.09-.13-.07.08-.11.29-.32.31-.22.02-.28-.1-.17-.22.11-.11.22-.13.21-.23,0-.1-.09-.1-.18,0-.09.09-.3.25-.35.36-.05.12-.12.28-.24.2-.13-.07-.19-.23.03-.34.23-.11.29-.21.29-.27s-.03-.13-.13-.07c-.1.06-.49.36-.64.52-.15.16-.18.3-.32.28-.14-.01-.32-.21-.08-.29.24-.09.69-.44.81-.64.12-.21.13-.36.03-.3-.1.06-.21.02-.32.14-.1.11-.23.15-.32.13-.1-.03-.17-.17-.05-.22.11-.05.27-.1.29-.21.03-.11.02-.21-.1-.18-.12.02-.31.04-.53.23-.22.19-.27.37-.39.39-.13.02-.35-.15-.16-.26.19-.1.54-.31.75-.49.21-.19.3-.38.07-.31-.23.07-.32.14-.43.22-.11.08-.4.05-.32-.11.09-.16.25-.19.43-.28.18-.09.27-.23.27-.26s-.11-.03-.26.01c-.15.04-.45.1-.63.22-.18.11-.32.2-.45.21-.13.01-.27-.26.02-.3.29-.04.74-.24.94-.4.19-.16.24-.37-.04-.35-.28.03-.4.08-.74.18-.35.1-.37.1-.42.17-.05.07-.3.06-.33-.09-.03-.15.03-.3.29-.26.26.04.68-.04.99-.24.32-.2.28-.27.2-.3-.08-.03-.37-.06-.59.04-.22.11-.45.16-.58.06-.13-.1-.12-.32.07-.34.19-.01.38-.01.66-.01.28,0,.41-.03.41-.11,0-.08-.01-.09-.35-.11-.34-.02-.64-.06-.74.01-.11.07-.33.02-.33-.11s.07-.22.26-.15c.19.06.39.06.66-.01.27-.08.56-.22.43-.28-.12-.07-.3-.17-.42-.13-.12.04-.31.02-.32-.1-.01-.11.05-.27.32-.17.27.1.4.1.56.06.16-.04.16-.14.05-.19-.11-.05-.43-.2-.53-.3-.1-.09-.16-.08-.4-.1-.24-.03-.4-.13-.32-.27.08-.14.39-.28.48-.15.09.13.15.15.33.18.18.04.27.17.47.24.2.08.47,0,.42-.13-.05-.12-.1-.24-.32-.34-.22-.09-.4-.14-.38-.34.02-.19.09-.28.32-.17s.52.18.71.19c.19.01.17-.28,0-.41-.17-.13-.65-.26-.82-.41-.17-.15.1-.46.24-.27.14.19.44.35.71.49.27.14.33-.02.24-.16-.09-.14-.33-.33-.41-.37-.08-.04-.29-.12-.19-.24.11-.12.24-.19.33,0,.09.18.39.44.55.52.17.08.22-.06.12-.23-.1-.17-.25-.13-.28-.37-.03-.24.24-.27.32-.17.09.1.17.33.34.47.17.14.22-.04.17-.22-.06-.19-.09-.5-.22-.54-.14-.04-.11-.24.09-.29.19-.05.25.12.25.24s.3.53.44.48M34.5,23.79s-1.58-1.47-1.41-3.19c.17-1.73,1.04-2.27,2.45-3.19,1.41-.92,2.99-1.53,4.63-1.3,1.64.23,2.71.52,2.94.9.23.37.52.35,1.01.46.49.11.75.4,1.04.72.29.32.72.69.98.86.26.17.69,1.06,1.9,1.38,1.21.32,1.68.36,1.77.65.09.29.01.3.26.36.24.06.65.03.79.5.14.47.22.89.59,1.19.37.3.81.63.89,1.04.09.4.04.69.29.92.24.23.36.35.29.6-.07.26-.32.82.1,1.42.42.6,1.81,1.64,1.93,2.49.12.85.19,1.7.07,2.3-.12.6-.06.78.09,1.06.14.29.24.46,0,.63-.24.17-.19.26-.12.35.07.09.07.3-.07.46-.36.39.06.59-.2.95-.19.26-.2.01-.58.91-.37.89-.89,2.19-1.86,3.25-.96,1.06-1.8,1.8-3.09,1.99-1.3.19-2.33.16-3.29-.53-.96-.69-.83-.94-1.05-.85q-.22.09-.12.43c.1.35.3,1.94,0,2.72-.3.78-1.05,2.23-2.2,3.09-1.15.86-2.4,1.3-3.5,1.34-1.09.04-1.44.04-2.16.24-.72.2-1.96.2-2.82.19-.86-.01-1.12-.19-1.25-.52-.13-.33-.22-.58-.56-.56-.35.01-.46-.04-.65-.35-.19-.3-.23-.43-.52-.46-.29-.03-.33-.09-.42-.13-.09-.04-.29-.1-.58-.1s-.43-.03-.65-.19c-.22-.16-.19-.56-.42-.55-.23.01-.4.09-.56,0-.16-.09-.3-.6-.53-.63-.23-.03-.34-.1-.89-.49-.55-.4-.72-.58-.69-.68.03-.1-.19-.17-.3-.13-.1.04-.5.09-.57-.09-.07-.17-.08-.24-.06-.38.01-.14.04-.32-.08-.52-.12-.2-.2-.36-.19-.53.01-.17-.34-.4-.46-.5-.12-.09-.54-.39-.53-.7.01-.31-.16-1.01-.33-1.21-.17-.2-.09-.54,0-.79.08-.25.22-.7.2-.88-.02-.18-.09-.53,0-.72.1-.19.22-.62.17-.91-.04-.29-.09-.76-.27-.85-.18-.09-.53-.18-.44-.36.09-.18.27-.45.14-.68-.13-.24-.22-.34-.22-.53s-.17-.48-.29-.53c-.12-.05-.17-.1-.15-.3.01-.2,0-.49-.24-.95-.25-.46-.81-.96-.64-1.16.17-.2.39-.68.33-.81-.06-.14-.21-.5-.11-.89.1-.39.19-.95.17-1.04-.02-.09-.09-.21.08-.51.17-.3.52-1.19.67-1.45.15-.26,1.08-2.07,2.82-3.18,1.74-1.11,3.24-1.37,4.79-1.17,1.55.2,2.29.72,2.69,1.24.4.52.53,1.04.53,1.04l.44-.21Z"/>
    <path class="cls-2" d="M54.1,56.51c.19,0,.34.07.45.2.11.13.16.32.16.56,0,.25-.07.56-.21.91-.14.35-.32.68-.55.98-.2.27-.41.48-.63.63-.22.15-.43.23-.63.23-.16,0-.3-.06-.41-.19-.12-.14-.18-.32-.18-.56,0-.26.07-.57.22-.92.15-.36.33-.69.56-.98.2-.27.41-.47.62-.62.21-.15.41-.22.6-.22M54.07,56.96c-.12,0-.27.08-.45.23-.18.15-.36.35-.53.6-.18.26-.32.52-.43.78-.11.27-.16.49-.16.68s.07.29.22.29c.12,0,.28-.08.46-.23.18-.15.36-.35.53-.59.17-.24.3-.5.41-.77.11-.27.17-.5.18-.69,0-.09-.02-.17-.06-.22-.04-.06-.1-.09-.18-.09Z"/>
    <path class="cls-2" d="M49.09,57.46c.32-.64.69-.96,1.11-.96.16,0,.24.11.24.33v.28c0,.22-.07.33-.2.33s-.2-.12-.2-.37v-.09c-.35.09-.66.49-.95,1.22v1.48c0,.21-.07.31-.2.31s-.2-.1-.2-.31v-2.88c0-.21.07-.31.2-.31s.2.1.2.31v.65Z"/>
    <path class="cls-2" d="M44.81,58.42c-.13.25-.2.47-.2.65,0,.16.04.28.13.35.08.07.22.1.41.1.34,0,.74-.1,1.19-.3.07-.03.12-.05.17-.05s.09.02.13.06c.04.04.06.09.06.16,0,.13-.12.24-.36.34-.43.18-.86.27-1.3.27-.58,0-.87-.29-.87-.86,0-.37.12-.77.38-1.19.24-.4.53-.75.87-1.03.34-.28.63-.42.87-.42.18,0,.33.07.44.2.11.13.16.31.16.54s-.05.42-.16.6c-.11.18-.27.32-.47.42-.23.11-.51.17-.84.17-.16,0-.36,0-.62-.01M45.06,57.95c.16,0,.29.01.39.01.37,0,.64-.08.81-.23.07-.06.12-.14.17-.24.04-.09.07-.19.07-.27,0-.08-.02-.15-.06-.2-.04-.05-.1-.08-.17-.08-.11,0-.28.09-.5.28-.22.18-.46.43-.7.73Z"/>
    <path class="cls-2" d="M41.2,59.92l1.06-3.17c.06-.16.12-.24.21-.24.05,0,.1.02.14.07.04.05.06.1.06.16,0,.05-.02.11-.04.2l-1.21,3.58c-.05.15-.11.22-.2.22s-.14-.06-.18-.17l-.99-2.94s-.03-.09-.03-.14c0-.07.02-.12.06-.17s.08-.07.13-.07c.08,0,.14.06.18.18l.83,2.5Z"/>
    <path class="cls-2" d="M37.82,59.47c-.29.35-.66.53-1.11.53-.23,0-.42-.07-.54-.2-.14-.14-.21-.34-.21-.58,0-.49.3-.89.89-1.2.25-.13.57-.23.97-.31v-.19c0-.24-.02-.39-.06-.46-.04-.07-.12-.1-.25-.1-.29,0-.56.1-.82.31-.11.08-.18.12-.22.12-.05,0-.09-.02-.12-.06-.03-.04-.05-.08-.05-.14,0-.08.06-.16.16-.26.1-.1.24-.18.4-.26.26-.12.52-.18.77-.18.24,0,.4.08.49.24.04.07.07.15.08.24.01.08.02.27.02.56v2.15c0,.21-.07.31-.2.31s-.2-.1-.2-.31v-.22ZM37.82,58.14c-.31.05-.58.14-.8.25-.2.11-.37.23-.48.37-.11.14-.17.29-.17.43,0,.12.04.21.11.28.07.07.17.11.29.11.17,0,.34-.04.51-.13.17-.09.31-.2.41-.35.09-.12.13-.33.13-.64v-.32Z"/>
    <path class="cls-2" d="M32.52,59.89v1.04c0,.21-.07.31-.2.31s-.2-.1-.2-.31v-4.12c0-.2.07-.3.2-.3.12,0,.19.08.2.24.27-.16.53-.24.78-.24.28,0,.53.09.73.28.26.23.38.53.38.91,0,.64-.33,1.21-.98,1.69-.3.23-.61.39-.91.51M32.52,59.39c.44-.2.79-.45,1.05-.73.28-.3.42-.61.42-.94,0-.22-.07-.4-.2-.53-.14-.14-.31-.21-.52-.21-.24,0-.49.09-.74.28v2.12Z"/>
    <path class="cls-2" d="M30.13,59.47c-.29.35-.66.53-1.11.53-.23,0-.42-.07-.54-.2-.14-.15-.21-.34-.21-.58,0-.49.3-.89.89-1.2.25-.13.57-.23.97-.31v-.19c0-.24-.02-.39-.06-.46-.04-.07-.12-.1-.25-.1-.29,0-.56.1-.82.31-.11.08-.18.12-.22.12-.05,0-.09-.02-.12-.06-.03-.04-.05-.08-.05-.14,0-.08.06-.16.16-.26.1-.1.24-.18.4-.26.26-.12.52-.18.77-.18.24,0,.4.08.49.24.04.07.07.15.08.24.01.08.02.27.02.56v2.15c0,.21-.07.31-.2.31s-.2-.1-.2-.31v-.22ZM30.13,58.14c-.31.05-.58.14-.8.25-.2.11-.37.23-.48.37-.11.14-.17.29-.17.43,0,.12.04.21.11.28.07.07.17.11.29.11.17,0,.34-.04.51-.13.17-.09.31-.2.41-.35.09-.12.13-.33.13-.64v-.32Z"/>
    <path class="cls-2" d="M23.01,54.85c.28-.14.6-.24.95-.32.35-.08.69-.12,1-.12.38,0,.74.08,1.07.23.23.1.41.25.53.43.12.18.19.38.19.61,0,.57-.31,1.08-.93,1.53-.41.29-.86.52-1.33.69-.47.16-.92.24-1.37.24-.01,0-.05,0-.11,0v1.52c0,.24-.07.36-.21.36-.07,0-.13-.03-.16-.09-.03-.06-.05-.15-.05-.28v-4.88c0-.25.07-.37.21-.37s.21.12.21.37v.08ZM23.01,55.35v2.27s.06,0,.07,0c.32,0,.66-.05,1-.13.34-.09.67-.22.98-.38.81-.44,1.22-.9,1.22-1.38,0-.23-.11-.42-.33-.57-.24-.16-.57-.25-1.01-.25-.29,0-.62.04-.99.12-.36.08-.68.19-.94.32Z"/>
  </g>
</svg>